<svg width="64" height="64" viewBox="0 0 64 64" fill="none" xmlns="http://www.w3.org/2000/svg">
<rect width="64" height="64" rx="32" fill="white"/>
<path d="M44.0393 43.4366V48.1826H12V16H44.0393V17.6363C43.5452 17.7758 43.0742 18.0395 42.6882 18.4273L42.4952 18.6211V17.551H13.5441V46.6316H42.4952V44.9876L44.0393 43.4366Z" fill="black"/>
<path d="M27.6441 44.0344C26.4397 45.2442 24.4865 45.2442 23.2744 44.0344C22.07 42.8246 22.07 40.8626 23.2744 39.6451L42.691 20.1417C43.8953 18.9319 45.8485 18.9319 47.0606 20.1417C48.265 21.3514 48.265 23.3134 47.0606 24.531L27.6441 44.0344Z" fill="#B08C8B"/>
<path d="M39.9672 44.0333C38.7629 45.2431 36.8097 45.2431 35.5976 44.0333C34.3855 42.8236 34.3932 40.8616 35.5976 39.6441L49.0463 26.1351C50.2507 24.9253 52.204 24.9253 53.4161 26.1351C54.6281 27.3449 54.6204 29.3069 53.4161 30.5244L39.9672 44.0333Z" fill="#B08C8B"/>
<path d="M52.0689 44.0351C50.8645 45.2448 48.9112 45.2448 47.6991 44.0351C46.4871 42.8253 46.4948 40.8633 47.6991 39.6458L54.7324 32.5811C55.9367 31.3714 57.89 31.3714 59.102 32.5811C60.3064 33.7909 60.3064 35.7529 59.102 36.9704L52.0689 44.0351Z" fill="#B08C8B"/>
</svg>
