<svg width="120" height="81" viewBox="0 0 120 81" fill="none" xmlns="http://www.w3.org/2000/svg">
<path d="M80.0885 68.5833V80.4468H0V0H80.0885V4.09016C78.8534 4.43908 77.6762 5.0982 76.7113 6.06744L76.2288 6.55206V3.87695H3.85969V76.5698H76.2288V72.4602L80.0885 68.5833Z" fill="white"/>
<path d="M39.1047 70.0775C36.0942 73.1015 31.2116 73.1015 28.1817 70.0775C25.1712 67.0535 25.1712 62.1491 28.1817 59.1057L76.7174 10.353C79.7279 7.32896 84.6104 7.32896 87.6402 10.353C90.6508 13.377 90.6508 18.2814 87.6402 21.3248L39.1047 70.0775Z" fill="white"/>
<path d="M69.9087 70.0749C66.8982 73.0989 62.0157 73.0989 58.9859 70.0749C55.956 67.0508 55.9753 62.1464 58.9859 59.103L92.6037 25.3347C95.6143 22.3106 100.497 22.3106 103.527 25.3347C106.557 28.3587 106.537 33.2631 103.527 36.3065L69.9087 70.0749Z" fill="white"/>
<path d="M100.161 70.0792C97.1502 73.1032 92.2677 73.1032 89.2378 70.0792C86.208 67.0551 86.2273 62.1507 89.2378 59.1073L106.819 41.4478C109.829 38.4238 114.712 38.4238 117.742 41.4478C120.752 44.4718 120.752 49.3763 117.742 52.4197L100.161 70.0792Z" fill="white"/>
</svg>
