<svg width="1158" height="900" viewBox="0 0 1158 900" fill="none" xmlns="http://www.w3.org/2000/svg">
<path d="M790.441 68C877.503 96.6801 945.249 141.869 1000.23 189.933C1015.29 205.399 1020 211.682 1020 223.307C1020 284.993 825.02 335 584.5 335C343.98 335 149 284.993 149 223.307C149 205.87 187.156 172.403 203.614 160.627C239.739 134.78 301.482 95.409 385.818 68L387.5 67.5" stroke="#17425A" stroke-width="2"/>
<path d="M183 177.5C173.587 182.192 139.992 204.908 138.156 225.565C131.567 299.692 334.801 356 584.342 356C833.883 356 1039 296.817 1039 233.073C1039 221.06 1036.74 213.851 1021.11 197.869C1013.11 189.689 998.326 177.662 979.5 172.5" stroke="#17425A" stroke-width="2"/>
<path d="M728.991 41C767.214 48.1894 791 58.2944 791 69.4862C791 91.3091 700.562 109 589 109C477.438 109 387 91.3091 387 69.4862C387 58.4425 410.161 48.4569 447.5 41.2868" stroke="#17425A" stroke-width="2"/>
<path d="M737 53.2667C737 70.7925 670.514 85 588.5 85C506.486 85 440 70.7925 440 53.2667C440 35.7408 506.486 1 588.5 1C670.514 1 737 35.7408 737 53.2667Z" stroke="#17425A" stroke-width="2"/>
<path d="M212 300C270.639 365.589 440.626 412 585.084 412C717.582 412 895.755 365.854 957 301.5" stroke="#17425A" stroke-width="2"/>
<path d="M515 408L337 788" stroke="#17425A" stroke-width="2"/>
<path d="M658 408L837 788" stroke="#17425A" stroke-width="2"/>
<path d="M1 705.669L148.849 357H237.559V705.669H276V779.383H237.559V873H156.242V779.383H1V705.669ZM156.242 705.669V514.749L75.664 705.669H156.242Z" fill="white"/>
<path d="M1 705.669L148.849 357H237.559V705.669H276V779.383H237.559V873H156.242V779.383H1V705.669ZM156.242 705.669V514.749L75.664 705.669H156.242Z" stroke="#17425A" stroke-width="2"/>
<path d="M882 731.02L1029.85 381H1118.56V731.02H1157V805.02H1118.56V899H1037.24V805.02H882V731.02ZM1037.24 731.02V539.36L956.664 731.02H1037.24Z" fill="#17425A"/>
<path d="M882 731.02L1029.85 381H1118.56V731.02H1157V805.02H1118.56V899H1037.24V805.02H882V731.02ZM1037.24 731.02V539.36L956.664 731.02H1037.24Z" stroke="#17425A" stroke-width="2"/>
<path d="M839.955 804.042C840.612 819.675 834.02 832.261 821.5 842.406C808.939 852.584 790.422 860.289 767.333 866.025C721.164 877.495 657.104 881 586.977 881C516.852 881 453.464 877.378 407.632 865.851C384.713 860.086 366.275 852.366 353.584 842.205C340.929 832.072 334 819.529 334 804C334 787.637 340.944 774.687 353.589 764.411C366.275 754.103 384.707 746.486 407.624 740.925C453.456 729.805 516.841 727 586.977 727C657.112 727 719.8 729.922 765.283 741.1C788.024 746.689 806.374 754.321 819.194 764.612C831.98 774.875 839.272 787.783 839.955 804.042Z" stroke="#17425A" stroke-width="2"/>
<path d="M745.972 794.052C746.377 801.786 742.333 808.091 734.383 813.255C726.4 818.44 714.596 822.384 699.829 825.325C670.315 831.202 629.349 833 584.485 833C539.623 833 499.087 831.142 469.788 825.235C455.131 822.28 443.376 818.329 435.309 813.151C427.267 807.99 423 801.694 423 794C423 785.869 427.288 779.367 435.315 774.138C443.377 768.887 455.125 764.988 469.782 762.137C499.081 756.439 539.614 755 584.485 755C629.355 755 669.443 756.499 698.518 762.227C713.061 765.092 724.759 768.998 732.909 774.242C741.029 779.467 745.548 785.96 745.972 794.052Z" fill="white" stroke="#17425A" stroke-width="2"/>
<path d="M626 218C626 225.333 621.915 232.06 615.135 236.99C608.357 241.92 598.943 245 588.5 245C578.057 245 568.643 241.92 561.865 236.99C555.085 232.06 551 225.333 551 218C551 210.667 555.085 203.94 561.865 199.01C568.643 194.08 578.057 191 588.5 191C598.943 191 608.357 194.08 615.135 199.01C621.915 203.94 626 210.667 626 218Z" stroke="#17425A" stroke-width="2"/>
<path d="M418.815 197.941C419.959 203.96 417.146 210.292 411.359 215.681C405.584 221.059 396.952 225.381 386.822 227.307C376.693 229.233 367.077 228.38 359.731 225.497C352.37 222.608 347.43 217.75 346.285 211.731C345.141 205.712 347.954 199.381 353.741 193.992C359.516 188.614 368.148 184.292 378.278 182.366C388.407 180.44 398.023 181.292 405.369 184.176C412.73 187.065 417.67 191.922 418.815 197.941Z" stroke="#17425A" stroke-width="2"/>
<path d="M288.448 152.726C290.693 156.014 290.137 161.1 286.822 166.935C283.544 172.707 277.717 178.904 270.095 184.108C262.473 189.312 254.579 192.481 248.01 193.433C241.368 194.395 236.429 193.061 234.184 189.773C231.939 186.484 232.495 181.399 235.81 175.563C239.089 169.792 244.915 163.594 252.537 158.391C260.16 153.187 268.053 150.017 274.623 149.066C281.264 148.104 286.203 149.438 288.448 152.726Z" stroke="#17425A" stroke-width="2"/>
<path d="M887.216 151.862C884.971 155.15 885.527 160.236 888.842 166.071C892.12 171.843 897.947 178.04 905.569 183.244C913.192 188.448 921.085 191.617 927.654 192.569C934.296 193.531 939.235 192.197 941.48 188.909C943.725 185.62 943.169 180.535 939.854 174.699C936.575 168.928 930.749 162.73 923.127 157.527C915.504 152.323 907.611 149.153 901.042 148.202C894.4 147.24 889.461 148.574 887.216 151.862Z" stroke="#17425A" stroke-width="2"/>
<path d="M906.174 120.681C912.918 117.096 924.537 119.078 934.997 126.219C945.123 133.133 951.142 142.819 950.715 150.313" stroke="#17425A" stroke-width="2"/>
<path d="M270.557 118.071C263.954 114.232 252.268 115.769 241.543 122.506C231.16 129.028 224.776 138.477 224.917 145.983" stroke="#17425A" stroke-width="2"/>
<path d="M756.435 197.941C755.291 203.96 758.104 210.292 763.891 215.681C769.666 221.059 778.298 225.381 788.428 227.307C798.557 229.233 808.173 228.38 815.519 225.497C822.88 222.608 827.82 217.75 828.965 211.731C830.109 205.712 827.296 199.381 821.509 193.992C815.734 188.614 807.102 184.292 796.972 182.366C786.843 180.44 777.227 181.292 769.881 184.176C762.52 187.065 757.58 191.922 756.435 197.941Z" stroke="#17425A" stroke-width="2"/>
<path d="M223.997 312.255L229 307" stroke="#17425A" stroke-width="2"/>
<path d="M234.827 320.55L243.125 312" stroke="#17425A" stroke-width="2"/>
<path d="M246.3 328.374L258.047 316.375" stroke="#17425A" stroke-width="2"/>
<path d="M258.128 335.804L272.68 321" stroke="#17425A" stroke-width="2"/>
<path d="M271.127 342.804L288.797 324.881" stroke="#17425A" stroke-width="2"/>
<path d="M284.129 349.923L305.078 328.721" stroke="#17425A" stroke-width="2"/>
<path d="M298.127 356.202L322.078 331.999" stroke="#17425A" stroke-width="2"/>
<path d="M313.129 362.203L339.305 335.774" stroke="#17425A" stroke-width="2"/>
<path d="M328.122 368.429L357.531 338.767" stroke="#17425A" stroke-width="2"/>
<path d="M345.126 373.662L376.984 341.55" stroke="#17425A" stroke-width="2"/>
<path d="M362.121 379.111L396.172 344.808" stroke="#17425A" stroke-width="2"/>
<path d="M381.127 384.303L418.406 346.772" stroke="#17425A" stroke-width="2"/>
<path d="M401.61 390.39L441.203 349.203" stroke="#17425A" stroke-width="2"/>
<path d="M422.797 394.187L463.914 351.476" stroke="#17425A" stroke-width="2"/>
<path d="M441.796 398.876L486.078 353" stroke="#17425A" stroke-width="2"/>
<path d="M461.798 401.876L508.016 354.064" stroke="#17425A" stroke-width="2"/>
<path d="M482.798 404.812L530.742 355.273" stroke="#17425A" stroke-width="2"/>
<path d="M504.803 407.534L554.742 356" stroke="#17425A" stroke-width="2"/>
<path d="M526.801 409.534L578.734 356.006" stroke="#17425A" stroke-width="2"/>
<path d="M548.984 411.344L602.734 356" stroke="#17425A" stroke-width="2"/>
<path d="M572.89 411.438L627.734 355" stroke="#17425A" stroke-width="2"/>
<path d="M596.036 412.2L652.133 354.51" stroke="#17425A" stroke-width="2"/>
<path d="M622.185 411.048L678.555 353.084" stroke="#17425A" stroke-width="2"/>
<path d="M650.803 408.964L707.172 351" stroke="#17425A" stroke-width="2"/>
<path d="M678.803 405.964L734.484 348.687" stroke="#17425A" stroke-width="2"/>
<path d="M710.302 400.768L764.453 345.022" stroke="#17425A" stroke-width="2"/>
<path d="M742.696 394.701L794.703 341.099" stroke="#17425A" stroke-width="2"/>
<path d="M776.313 387.086L825.805 336" stroke="#17425A" stroke-width="2"/>
<path d="M807.391 378.497L853.656 330.637" stroke="#17425A" stroke-width="2"/>
<path d="M839.868 367.636L882.234 324.27" stroke="#17425A" stroke-width="2"/>
<path d="M877.746 352.753L913.594 315.905" stroke="#17425A" stroke-width="2"/>
<path d="M919.819 330.527L942.594 306.752" stroke="#17425A" stroke-width="2"/>
</svg>
