<svg width="355" height="351" viewBox="0 0 355 351" fill="none" xmlns="http://www.w3.org/2000/svg">
<path d="M179 352H356V175H179V352Z" fill="#17425A" stroke="white"/>
<rect width="177" height="177" transform="matrix(1 0 0 -1 179 175)" fill="#17425A" stroke="white"/>
<rect width="90" height="90" transform="matrix(1 0 0 -1 223 309)" stroke="white"/>
<rect width="8" height="8" transform="matrix(1 0 0 -1 223 227)" fill="white"/>
<rect width="8" height="8" transform="matrix(1 0 0 -1 305 227)" fill="white"/>
<rect width="8" height="8" transform="matrix(1 0 0 -1 305 309)" fill="white"/>
<rect width="8" height="8" transform="matrix(1 0 0 -1 223 309)" fill="white"/>
<path d="M179 352H2L179 175V352Z" fill="#17425A" stroke="white"/>
<path d="M264.762 175L179 89.2382M179 45.8217L308.178 175" stroke="white"/>
<path d="M178.793 134L220.097 175.303" stroke="white"/>
<path d="M307.668 -1.5L356.102 46.9334M356.102 89.8332L264.498 -1.77002" stroke="white"/>
<path d="M220.319 -1.49976L356.574 134.756M354.436 175L179.265 -0.171127" stroke="white"/>
<path d="M21.6211 347.16L41.5203 327.261" stroke="white"/>
<path d="M27.8242 352.845L47.7234 332.946" stroke="white"/>
<path d="M34.0273 359.565L53.9266 339.666" stroke="white"/>
<path d="M66.5898 304.778L86.4891 284.879" stroke="white"/>
<path d="M72.793 310.464L92.6922 290.564" stroke="white"/>
<path d="M78.9961 317.183L98.8953 297.283" stroke="white"/>
<path d="M112.074 305.811L131.973 285.912" stroke="white"/>
<path d="M118.277 311.497L138.177 291.597" stroke="white"/>
<path d="M124.48 318.216L144.38 298.317" stroke="white"/>
<path d="M154.457 307.362L174.356 287.463" stroke="white"/>
<path d="M160.66 313.047L179.267 294.182" stroke="white"/>
<path d="M166.863 319.766L179.268 307.103" stroke="white"/>
<path d="M156.008 349.228L175.907 329.329" stroke="white"/>
<path d="M164.793 351.812L179.265 337.857" stroke="white"/>
<path d="M68.1406 348.711L88.0398 328.812" stroke="white"/>
<path d="M74.3438 354.397L94.243 334.498" stroke="white"/>
<path d="M80.5469 361.116L100.446 341.217" stroke="white"/>
<path d="M110.523 350.261L130.423 330.362" stroke="white"/>
<path d="M116.727 355.947L136.626 336.048" stroke="white"/>
<path d="M122.93 362.666L142.829 342.767" stroke="white"/>
<path d="M158.074 262.395L177.969 242.5" stroke="white"/>
<path d="M164.277 268.08L178.858 253.5" stroke="white"/>
<path d="M170.48 274.8L179.002 266.278" stroke="white"/>
<path d="M111.555 259.81L131.454 239.911" stroke="white"/>
<path d="M117.758 265.496L137.657 245.597" stroke="white"/>
<path d="M123.961 272.215L143.86 252.316" stroke="white"/>
<path d="M157.039 215.361L176.938 195.462" stroke="white"/>
<path d="M163.242 221.046L179.007 205.024" stroke="white"/>
<path d="M169.445 227.765L178.999 218.212" stroke="white"/>
<path d="M64.4062 338.748L44.507 318.849" stroke="white"/>
<path d="M70.0938 332.804L50.1945 312.904" stroke="white"/>
<path d="M76.8125 326.86L56.9133 306.961" stroke="white"/>
<path d="M109.746 338.89L89.8469 318.991" stroke="white"/>
<path d="M115.434 332.946L95.5344 313.047" stroke="white"/>
<path d="M122.152 327.002L102.253 307.103" stroke="white"/>
<path d="M153.164 340.441L133.265 320.542" stroke="white"/>
<path d="M158.852 334.497L138.952 314.598" stroke="white"/>
<path d="M165.57 328.553L145.671 308.654" stroke="white"/>
<path d="M155.23 295.474L135.331 275.575" stroke="white"/>
<path d="M160.918 289.53L141.019 269.631" stroke="white"/>
<path d="M167.637 283.586L147.738 263.687" stroke="white"/>
<path d="M109.371 295.331L89.4719 275.432" stroke="white"/>
<path d="M115.059 289.129L95.1594 269.23" stroke="white"/>
<path d="M121.777 282.927L101.878 263.027" stroke="white"/>
<path d="M154.855 250.365L134.956 230.466" stroke="white"/>
<path d="M160.543 244.162L140.644 224.263" stroke="white"/>
<path d="M167.262 237.96L147.363 218.061" stroke="white"/>
</svg>
