<svg width="375" height="188" viewBox="0 0 375 188" fill="none" xmlns="http://www.w3.org/2000/svg">
<path d="M188 189H376V1.00002H188.1C188.045 1.00002 188 1.04478 188 1.10001V189Z" fill="#17425A" stroke="white"/>
<rect width="100" height="100" transform="matrix(1 0 0 -1 232 145)" stroke="white"/>
<rect width="8" height="8" transform="matrix(1 0 0 -1 232 53)" fill="white"/>
<rect width="8" height="8" transform="matrix(1 0 0 -1 324 53)" fill="white"/>
<rect width="8" height="8" transform="matrix(1 0 0 -1 324 145)" fill="white"/>
<rect width="8" height="8" transform="matrix(1 0 0 -1 232 145)" fill="white"/>
<path d="M188 189H-1L187.659 1.33926C187.785 1.21379 188 1.30312 188 1.48105V189Z" fill="#17425A" stroke="white"/>
<path d="M19.3008 183.658L40.5324 162.426" stroke="white"/>
<path d="M25.918 189.724L47.1496 168.492" stroke="white"/>
<path d="M32.5352 196.893L53.7668 175.661" stroke="white"/>
<path d="M67.2812 138.438L88.5129 117.206" stroke="white"/>
<path d="M73.8984 144.503L95.1301 123.272" stroke="white"/>
<path d="M80.5156 151.673L101.747 130.441" stroke="white"/>
<path d="M115.809 139.54L137.04 118.308" stroke="white"/>
<path d="M122.426 145.606L143.657 124.374" stroke="white"/>
<path d="M129.043 152.775L150.275 131.544" stroke="white"/>
<path d="M161.031 141.195L182.263 119.963" stroke="white"/>
<path d="M167.648 147.261L187.501 127.133" stroke="white"/>
<path d="M174.266 154.43L187.501 140.919" stroke="white"/>
<path d="M162.684 185.864L183.915 164.633" stroke="white"/>
<path d="M172.059 188.622L187.5 173.732" stroke="white"/>
<path d="M68.9336 185.313L90.1653 164.082" stroke="white"/>
<path d="M75.5508 191.379L96.7824 170.148" stroke="white"/>
<path d="M82.168 198.549L103.4 177.317" stroke="white"/>
<path d="M114.152 186.967L135.384 165.735" stroke="white"/>
<path d="M120.77 193.033L142.001 171.801" stroke="white"/>
<path d="M127.387 200.202L148.618 178.971" stroke="white"/>
<path d="M164.891 93.217L186.122 71.9854" stroke="white"/>
<path d="M171.508 99.2832L187.5 83.0148" stroke="white"/>
<path d="M178.125 106.452L187.5 96.5259" stroke="white"/>
<path d="M115.258 90.4597L136.489 69.2281" stroke="white"/>
<path d="M121.875 96.5259L143.107 75.2942" stroke="white"/>
<path d="M128.492 103.695L149.724 82.4634" stroke="white"/>
<path d="M163.785 43.0332L185.017 21.8015" stroke="white"/>
<path d="M170.402 49.0989L187.222 32.0033" stroke="white"/>
<path d="M177.02 56.2676L187.498 45.7891" stroke="white"/>
<path d="M64.9492 174.683L43.7176 153.451" stroke="white"/>
<path d="M71.0156 168.341L49.784 147.109" stroke="white"/>
<path d="M78.1836 161.999L56.9519 140.768" stroke="white"/>
<path d="M113.328 174.834L92.0965 153.603" stroke="white"/>
<path d="M119.395 168.492L98.1629 147.26" stroke="white"/>
<path d="M126.562 162.15L105.331 140.918" stroke="white"/>
<path d="M159.652 176.489L138.421 155.257" stroke="white"/>
<path d="M165.719 170.147L144.487 148.915" stroke="white"/>
<path d="M172.887 163.805L151.655 142.574" stroke="white"/>
<path d="M71.4141 207.6L49.5058 185.692" stroke="white"/>
<path d="M161.859 128.512L140.628 107.28" stroke="white"/>
<path d="M167.926 122.169L146.694 100.938" stroke="white"/>
<path d="M175.094 115.827L153.862 94.5957" stroke="white"/>
<path d="M112.93 128.359L91.698 107.127" stroke="white"/>
<path d="M118.996 121.741L97.7644 100.51" stroke="white"/>
<path d="M126.164 115.124L104.932 93.8921" stroke="white"/>
<path d="M161.457 80.3806L140.225 59.149" stroke="white"/>
<path d="M167.523 73.7632L146.292 52.5315" stroke="white"/>
<path d="M174.691 67.1453L153.46 45.9136" stroke="white"/>
</svg>
