<svg width="511" height="627" viewBox="0 0 511 627" fill="none" xmlns="http://www.w3.org/2000/svg">
<circle cx="497" cy="613" r="13.4" stroke="#17425A" stroke-width="1.2"/>
<path d="M501.199 612.3L496.999 616.5L492.799 612.3" stroke="#17425A" stroke-width="1.2" stroke-linecap="square"/>
<path d="M495.855 0.333252C495.855 19.4928 495.855 23.2569 495.855 22.744L495.855 24.3495" stroke="#17425A" stroke-width="1.2"/>
<path d="M4.85437 0.333252C4.85437 19.4928 4.85437 23.2569 4.85437 22.744L4.85437 24.3495" stroke="#17425A" stroke-width="1.2"/>
<path d="M0 5.36133C398.886 5.36133 477.252 5.36133 466.574 5.36133L500 5.36133" stroke="#17425A" stroke-width="1.2"/>
<path d="M1.78857 2.37744C6.4006 6.98946 7.30668 7.89555 7.18322 7.77209L7.56971 8.15857" stroke="#17425A" stroke-width="1.2"/>
<path d="M492.789 2.37744C497.401 6.98946 498.307 7.89555 498.184 7.77209L498.57 8.15857" stroke="#17425A" stroke-width="1.2"/>
<path d="M497 128C497 488.593 497 559.435 497 549.783L497 580" stroke="#17425A" stroke-width="1.2"/>
</svg>
