<svg width="509" height="379" viewBox="0 0 509 379" fill="none" xmlns="http://www.w3.org/2000/svg">
<path d="M495.855 0.333252C495.855 19.4928 495.855 23.2569 495.855 22.744L495.855 24.3495" stroke="#17425A" stroke-width="1.2"/>
<path d="M4.85449 0.333252C4.8545 19.4928 4.8545 23.2569 4.8545 22.744L4.8545 24.3495" stroke="#17425A" stroke-width="1.2"/>
<path d="M0 5.36133C398.886 5.36133 477.252 5.36133 466.574 5.36133L500 5.36133" stroke="#17425A" stroke-width="1.2"/>
<path d="M1.78857 2.37744C6.4006 6.98946 7.30668 7.89555 7.18322 7.77209L7.56971 8.15857" stroke="#17425A" stroke-width="1.2"/>
<path d="M492.789 2.37744C497.401 6.98946 498.307 7.89555 498.183 7.77209L498.57 8.15857" stroke="#17425A" stroke-width="1.2"/>
<path d="M495.667 125C495.667 288.809 495.667 320.991 495.667 316.606L495.667 330.333" stroke="#17425A" stroke-width="1.2"/>
<circle cx="495" cy="365" r="13.4" stroke="#17425A" stroke-width="1.2"/>
<path d="M499.199 364.3L494.999 368.5L490.799 364.3" stroke="#17425A" stroke-width="1.2" stroke-linecap="square"/>
</svg>
