<svg width="355" height="388" viewBox="0 0 355 388" fill="none" xmlns="http://www.w3.org/2000/svg">
<path d="M340 0C340 28.7198 340 34.3621 340 33.5933L340 36" stroke="#17425A" stroke-width="0.8"/>
<path d="M3 0C3 28.7198 3 34.3621 3 33.5933L3 36" stroke="#17425A" stroke-width="0.8"/>
<path d="M0 3C273.636 3 327.395 3 320.07 3L343 3" stroke="#17425A" stroke-width="0.8"/>
<path d="M0.886414 1.21875C3.77664 4.10898 4.34446 4.6768 4.26709 4.59943L4.50929 4.84163" stroke="#17425A" stroke-width="0.8"/>
<path d="M338 1.21875C340.89 4.10898 341.458 4.6768 341.381 4.59943L341.623 4.84163" stroke="#17425A" stroke-width="0.8"/>
<path d="M342 111C342 419.738 342 329.393 342 321.128L342 347" stroke="#17425A" stroke-width="0.8"/>
<circle cx="342" cy="375" r="12.6" stroke="#17425A" stroke-width="0.8"/>
<path d="M345.9 374.65L342 378.645L338.1 374.65" stroke="#17425A" stroke-width="0.8" stroke-linecap="square"/>
</svg>
