<svg width="40" height="40" viewBox="0 0 40 40" fill="none" xmlns="http://www.w3.org/2000/svg">
<g clip-path="url(#clip0_369_2116)">
<rect width="40" height="40" fill="#17425A"/>
<path d="M18.125 17.5C18.125 17.5 8.60713 17.5 2.7444 17.5C-3.08619 17.5 -3.6977 9.56691 2.63892 9.19812C2.69942 9.1946 2.75278 9.15278 2.76689 9.09384C3.20802 7.25008 5.23592 3.75 10.0725 3.75C14.8652 3.75 16.622 7.27732 17.0728 9.05053C17.0922 9.12687 17.1717 9.17107 17.2472 9.14833C18.5666 8.75053 20.3558 8.76532 21.5625 9.19271" stroke="white" stroke-linecap="round"/>
<path d="M40 4.375C35.3299 5.25065 33.9313 8.85256 33.5124 9.57866C33.4756 9.64244 33.3974 9.6449 33.3518 9.58709C32.935 9.05877 31.6839 7.1875 28.4375 7.1875C24.9911 7.1875 23.2008 9.78178 22.767 11.5932C22.7529 11.6521 22.6994 11.6946 22.6389 11.6981C16.3023 12.0669 16.9138 20 22.7444 20C28.6071 20 35.3125 20 35.3125 20H40" stroke="white" stroke-linecap="round"/>
<path d="M3.125 30H6.94318M11.3068 30H18.125M3.125 35H11.3068M15.6705 35H21.875M21.875 30H25.625M29.375 30H37.5M25.625 35H29.375M33.125 35H36.875" stroke="white" stroke-linecap="round"/>
<path d="M3.125 24.375H5.36364M9.18182 24.375L14.9091 24.375M18.0909 24.375H20M23.75 24.375H31.25M35 24.375H36.875" stroke="white" stroke-width="1.2" stroke-linecap="round"/>
</g>
<defs>
<clipPath id="clip0_369_2116">
<rect width="40" height="40" fill="white"/>
</clipPath>
</defs>
</svg>
