<svg width="40" height="40" viewBox="0 0 40 40" fill="none" xmlns="http://www.w3.org/2000/svg">
<g clip-path="url(#clip0_369_2123)">
<rect width="40" height="40" fill="#17425A"/>
<path d="M8.61055 -1.875C7.31224 -1.38044 4.48204 0.973653 3.52329 4.05969C2.32485 7.91724 5.02134 9.10418 1.42602 12.3683C-2.16931 15.6323 -1.8697 18.8964 -1.8697 19.7866C-1.8697 20.6768 -2.76833 24.8266 3.52349 21.5625C9.81531 18.2984 9.99919 20.9736 13.1106 20.9736C19.7134 20.9736 20.0016 13.8519 19.1028 9.69765C18.2039 5.54337 20.9004 -0.094592 20.6008 -1.28153M10.7078 2.87275C8.14795 2.87275 7.07675 5.34058 8.01133 7.32377C10.1089 11.7748 5.01523 11.7748 5.32069 14.4454C5.68367 17.6189 11.665 15.3076 12.2059 15.0389C13.4004 14.4454 15.4546 13.2585 15.2078 9.10418C14.9787 5.24663 13.4043 2.87275 10.7078 2.87275Z" stroke="white"/>
<path d="M4.07919 41.25C2.69148 39.6538 1.10544 34.4261 4.67383 29.8768C9.13433 24.1901 15.2598 26.6874 19.8396 23.2923C23.4375 20.625 27.5711 14.6875 26.3817 7.72887C25.8294 4.49816 26.679 -0.950704 27.5711 -1.25M32.9237 -0.950704C31.9325 0.0469482 32.5905 3.4209 33.579 4.78873C35.3125 7.1875 39.6875 7.72887 42.1875 7.72887" stroke="white"/>
<path d="M29.9987 46.875C28.5503 43.5974 29.9987 44.1934 28.84 40.3199C27.8824 37.1187 17.0069 39.386 14.9356 37.0423C12.0391 33.7648 14.9358 30.1893 18.4119 29.2954C21.8879 28.4015 28.5503 26.6138 29.9987 20.3566C31.1574 15.3509 33.4744 12.6097 37.5299 13.2056C40.7162 13.6738 41.875 18.2709 41.875 19.4627" stroke="white"/>
<path d="M31.9704 26.5625C33.3401 24.0208 34.0614 23.75 35.3114 23.75C37.4989 24.375 37.235 27.8342 37.0155 29.6875C36.7959 31.5409 38.5509 33.8864 37.0155 35.6886C36.1382 36.7183 34.1639 36.3064 31.9704 34.659C30.4384 33.5084 27.6246 34.5593 27.1862 32.5C26.654 30 30.9364 28.4812 31.9704 26.5625Z" stroke="white"/>
</g>
<defs>
<clipPath id="clip0_369_2123">
<rect width="40" height="40" fill="white"/>
</clipPath>
</defs>
</svg>
