<svg width="40" height="40" viewBox="0 0 40 40" fill="none" xmlns="http://www.w3.org/2000/svg">
<rect width="40" height="40" fill="#17425A"/>
<path d="M0 21.5108C4.12698 19.9695 9.96821 20.7533 12.6984 21.5108C17.1429 22.7437 17.7778 24.285 24.4444 24.9015C31.1111 25.518 31.1111 23.052 40 22.7437" stroke="white" stroke-linecap="round"/>
<path d="M0 30.4572C2.79431 29.9506 9.47912 30.9262 12.252 31.673C16.7659 32.8889 20.9573 33.6304 25.7936 32.7185C30.63 31.8066 31.5972 29.679 40.625 29.375" stroke="white" stroke-linecap="round"/>
<path d="M26.25 24.6875C28.75 21.5625 28.75 16.875 26.25 12.5" stroke="white" stroke-linecap="round"/>
<path d="M30.6262 7.5C27.6262 8.75 25.9391 10.3125 26.8762 12.8125C28.4391 15.9375 33.4391 14.375 34.6891 12.1875C35.8487 10.1582 35.779 6.77543 35.2618 5.03679C35.1811 4.76567 34.7902 4.74997 34.6038 4.96273C34.0267 5.62151 32.8139 6.58845 30.6262 7.5Z" stroke="white" stroke-linecap="round"/>
<path d="M22.8125 16.875C19.3462 17.5052 16.0638 15.1398 14.5429 13.8563C14.3369 13.6825 14.4222 13.3515 14.6824 13.2813C16.722 12.7314 18.3789 11.9457 20.9375 11.5625C23.4695 11.1833 25.7842 11.5625 26.25 12.8125C26.8322 14.375 26.25 16.25 22.8125 16.875Z" stroke="white" stroke-linecap="round"/>
<path d="M4.375 23.7495H6.25M15.3125 28.4909H17.1875M7.5 36.2495H9.375M29.375 34.9995H31.25M34.375 26.6159H36.25" stroke="white" stroke-linecap="round"/>
</svg>
