<svg width="42" height="40" viewBox="0 0 42 40" fill="none" xmlns="http://www.w3.org/2000/svg">
<rect width="40" height="40" transform="translate(1)" fill="#17425A"/>
<path d="M0.373047 35.3129C3.81055 34.3754 9.74805 32.8129 18.8105 35.9379C24.901 38.0381 25.998 31.5629 32.873 30.3129C36.3166 29.6868 41.4147 30.0004 41.623 30.0004M0.373047 30.3129C4.01888 28.9588 12.873 25.6254 21.623 26.5629C28.8769 27.3401 30.7523 23.9683 33.1963 21.5629M41.9355 19.3754C41.623 19.3754 39.4355 18.7504 36.9355 19.3754C35.605 19.7081 34.4419 20.3371 33.1963 21.5629M0.373047 24.3754C3.28971 23.5421 9.43555 20.9379 14.748 21.2504C19.5201 21.5311 22.3746 23.1254 25.998 23.1254C29.4355 23.1254 31.4219 22.0838 33.1963 21.5629" stroke="white"/>
<path d="M3.8125 23.125L11.1146 6.7684C11.3321 6.281 12.0057 6.2342 12.2886 6.68683L17.3941 14.8555C17.6325 15.237 18.1727 15.2776 18.4656 14.936L21.0523 11.9182C21.3398 11.5827 21.8681 11.6147 22.1132 11.9822L29.125 22.5" stroke="white"/>
</svg>
