<svg width="44" height="40" viewBox="0 0 44 40" fill="none" xmlns="http://www.w3.org/2000/svg">
<rect width="40" height="40" transform="translate(2)" fill="#17425A"/>
<path d="M1.375 27.5181C3.95312 26.9767 10.3984 26.4353 15.877 27.7888C20.7654 28.9965 21.3555 29.1423 26.834 27.7888C32.957 26.276 40.0469 26.9767 42.625 27.5181" stroke="white"/>
<path d="M6.0625 33.75H9.5M14.8125 33.75H18.25M24.5 33.75H27.9375M33.5625 33.75H37.3125" stroke="white" stroke-linecap="round"/>
<path d="M1.375 16.25C3.28056 19.3768 6.75106 19.4221 9.3189 16.386C9.37582 16.3187 9.48282 16.322 9.53541 16.3927C11.7676 19.3946 15.1919 19.6804 18.0282 16.3739C18.0825 16.3106 18.1833 16.3108 18.2374 16.3743C21.0616 19.6836 23.8821 19.3939 26.4013 16.3839C26.4573 16.317 26.5633 16.3198 26.6163 16.389C29.139 19.6819 32.2542 19.3896 34.7781 16.3862C34.8348 16.3187 34.9418 16.322 34.9944 16.3927C37.2539 19.4316 40.7208 19.687 42.625 16.25" stroke="white" stroke-linecap="round"/>
<path d="M1.375 9.375C3.28056 12.5018 6.75106 12.5471 9.3189 9.511C9.37582 9.4437 9.48282 9.44699 9.53541 9.51772C11.7676 12.5196 15.1919 12.8054 18.0282 9.49891C18.0825 9.4356 18.1833 9.43581 18.2374 9.49926C21.0616 12.8086 23.8821 12.5189 26.4013 9.50886C26.4573 9.44204 26.5633 9.44483 26.6163 9.51401C29.139 12.8069 32.2542 12.5146 34.7781 9.51116C34.8348 9.44368 34.9418 9.44699 34.9944 9.51773C37.2539 12.5566 40.7208 12.812 42.625 9.375" stroke="white" stroke-linecap="round"/>
</svg>
