<svg width="64" height="64" viewBox="0 0 64 64" fill="none" xmlns="http://www.w3.org/2000/svg">
<g clip-path="url(#clip0_369_2154)">
<rect width="64" height="64" fill="#17425A"/>
<path d="M37.8 11.2C37.8 8.06661 37.2667 5.96661 36.2 4.89995C35.2 3.76661 33.8333 3.19995 32.1 3.19995C30.3667 3.19995 28.9667 3.73328 27.9 4.79995C26.9 5.79995 26.4 7.56662 26.4 10.0999V17.6H16V10.8C16 5.13328 17.3667 0.799947 20.1 -2.20005C22.9 -5.26672 27 -6.80005 32.4 -6.80005C37.8 -6.80005 41.8667 -5.26672 44.6 -2.20005C47.4 0.799947 48.8 5.13328 48.8 10.8C48.8 14.6 48.2 18.0333 47 21.0999C45.8667 24.1666 44.4333 26.9666 42.7 29.5C40.9667 32.0333 39.1 34.3666 37.1 36.5C35.1 38.5666 33.3 40.5666 31.7 42.5C30.1 44.3666 28.8333 46.2333 27.9 48.0999C26.9667 49.9666 26.6667 51.9333 27 54H47.8V64H16V55.4C16 52 16.5333 49 17.6 46.4C18.6667 43.8 20 41.4333 21.6 39.2999C23.2667 37.0999 25.0333 35.0666 26.9 33.1999C28.7667 31.2666 30.5 29.2333 32.1 27.0999C33.7667 24.9666 35.1333 22.6333 36.2 20.1C37.2667 17.5666 37.8 14.5999 37.8 11.2Z" fill="white"/>
</g>
<defs>
<clipPath id="clip0_369_2154">
<rect width="64" height="64" fill="white"/>
</clipPath>
</defs>
</svg>
