<svg width="64" height="72" viewBox="0 0 64 72" fill="none" xmlns="http://www.w3.org/2000/svg">
<rect y="6" width="64" height="64" fill="#17425A"/>
<path d="M37.1984 18.2002C37.1984 15.0669 36.6651 12.9669 35.5984 11.9002C34.5984 10.7669 33.2318 10.2002 31.4984 10.2002C29.7651 10.2002 28.3651 10.7335 27.2984 11.8002C26.2984 12.8002 25.7984 14.5669 25.7984 17.1002V21.6002H15.3984V17.8002C15.3984 12.1335 16.7651 7.80019 19.4984 4.80019C22.2984 1.73353 26.3984 0.200195 31.7984 0.200195C37.1984 0.200195 41.2651 1.73353 43.9984 4.80019C46.7984 7.80019 48.1984 12.1335 48.1984 17.8002V19.6002C48.1984 27.0669 45.6318 31.8669 40.4984 34.0002C43.2984 35.2002 45.2651 37.0669 46.3984 39.6002C47.5984 42.0669 48.1984 45.1002 48.1984 48.7002V54.2002C48.1984 59.8669 46.7984 64.2335 43.9984 67.3002C41.2651 70.3002 37.1984 71.8002 31.7984 71.8002C26.3984 71.8002 22.2984 70.3002 19.4984 67.3002C16.7651 64.2335 15.3984 59.8669 15.3984 54.2002V48.4002H25.7984V54.9002C25.7984 57.4335 26.2984 59.2335 27.2984 60.3002C28.3651 61.3002 29.7651 61.8002 31.4984 61.8002C33.2318 61.8002 34.5984 61.2669 35.5984 60.2002C36.6651 59.1335 37.1984 57.0335 37.1984 53.9002V48.4002C37.1984 45.1335 36.6318 42.8335 35.4984 41.5002C34.3651 40.1669 32.5318 39.5002 29.9984 39.5002H26.2984V29.5002H30.5984C32.6651 29.5002 34.2651 28.9669 35.3984 27.9002C36.5984 26.8335 37.1984 24.9002 37.1984 22.1002V18.2002Z" fill="white"/>
</svg>
